<svg width="20" height="20" viewBox="0 0 20 20" fill="none" xmlns="http://www.w3.org/2000/svg">
<path d="M19.375 13.75H6.1675L6.77 12.8469C6.85799 12.7147 6.8924 12.5541 6.86625 12.3975L5.08187 1.65813C5.03088 1.36864 4.87949 1.10638 4.65431 0.917438C4.42913 0.728495 4.14457 0.624951 3.85062 0.625H0.625C0.45924 0.625 0.300269 0.690848 0.183058 0.808058C0.065848 0.925268 0 1.08424 0 1.25C0 1.41576 0.065848 1.57473 0.183058 1.69194C0.300269 1.80915 0.45924 1.875 0.625 1.875L3.84938 1.86875L5.59313 12.3588L4.48 14.0281C4.41958 14.1227 4.38544 14.2317 4.38112 14.3439C4.37679 14.4561 4.40243 14.5674 4.45538 14.6663C4.50834 14.7653 4.58671 14.8484 4.68243 14.907C4.77815 14.9657 4.88777 14.9978 5 15H19.375C19.5408 15 19.6997 14.9342 19.8169 14.8169C19.9342 14.6997 20 14.5408 20 14.375C20 14.2092 19.9342 14.0503 19.8169 13.9331C19.6997 13.8158 19.5408 13.75 19.375 13.75ZM18.75 17.5C18.75 17.1292 18.64 16.7666 18.434 16.4583C18.228 16.15 17.9351 15.9096 17.5925 15.7677C17.2499 15.6258 16.8729 15.5887 16.5092 15.661C16.1455 15.7334 15.8114 15.912 15.5492 16.1742C15.287 16.4364 15.1084 16.7705 15.036 17.1342C14.9637 17.4979 15.0008 17.8749 15.1427 18.2175C15.2846 18.5601 15.525 18.853 15.8333 19.059C16.1416 19.265 16.5042 19.375 16.875 19.375C17.3723 19.375 17.8492 19.1775 18.2008 18.8258C18.5525 18.4742 18.75 17.9973 18.75 17.5ZM16.25 17.5C16.25 17.3764 16.2867 17.2555 16.3553 17.1528C16.424 17.05 16.5216 16.9699 16.6358 16.9226C16.75 16.8753 16.8757 16.8629 16.9969 16.887C17.1182 16.9111 17.2295 16.9706 17.3169 17.0581C17.4044 17.1455 17.4639 17.2568 17.488 17.3781C17.5121 17.4993 17.4997 17.625 17.4524 17.7392C17.4051 17.8534 17.325 17.951 17.2222 18.0197C17.1195 18.0883 16.9986 18.125 16.875 18.125C16.7092 18.125 16.5503 18.0592 16.4331 17.9419C16.3158 17.8247 16.25 17.6658 16.25 17.5ZM10.625 17.5C10.625 17.1292 10.515 16.7666 10.309 16.4583C10.103 16.15 9.81014 15.9096 9.46753 15.7677C9.12492 15.6258 8.74792 15.5887 8.38421 15.661C8.02049 15.7334 7.6864 15.912 7.42417 16.1742C7.16195 16.4364 6.98337 16.7705 6.91103 17.1342C6.83868 17.4979 6.87581 17.8749 7.01773 18.2175C7.15964 18.5601 7.39996 18.853 7.70831 19.059C8.01665 19.265 8.37916 19.375 8.75 19.375C9.24728 19.375 9.72419 19.1775 10.0758 18.8258C10.4275 18.4742 10.625 17.9973 10.625 17.5ZM8.125 17.5C8.125 17.3764 8.16166 17.2555 8.23033 17.1528C8.29901 17.05 8.39662 16.9699 8.51082 16.9226C8.62503 16.8753 8.75069 16.8629 8.87193 16.887C8.99317 16.9111 9.10453 16.9706 9.19194 17.0581C9.27935 17.1455 9.33887 17.2568 9.36299 17.3781C9.38711 17.4993 9.37473 17.625 9.32743 17.7392C9.28012 17.8534 9.20001 17.951 9.09723 18.0197C8.99445 18.0883 8.87361 18.125 8.75 18.125C8.58424 18.125 8.42527 18.0592 8.30806 17.9419C8.19085 17.8247 8.125 17.6658 8.125 17.5Z" fill="white"/>
<path d="M7.5 11.25C7.5 11.4158 7.56585 11.5747 7.68306 11.6919C7.80027 11.8092 7.95924 11.875 8.125 11.875H17.5C17.6393 11.875 17.7747 11.8284 17.8845 11.7427C17.9943 11.657 18.0724 11.537 18.1062 11.4019L18.8875 8.27688C18.9264 8.11655 18.9004 7.94733 18.8151 7.80612C18.7298 7.66491 18.5921 7.56316 18.432 7.52306C18.272 7.48297 18.1026 7.50779 17.9608 7.5921C17.819 7.67641 17.7162 7.81337 17.675 7.97312L17.0119 10.625H8.125C7.95924 10.625 7.80027 10.6908 7.68306 10.8081C7.56585 10.9253 7.5 11.0842 7.5 11.25ZM19.0431 6.79688C19.119 6.75531 19.1858 6.69892 19.2394 6.63107C19.2931 6.56322 19.3326 6.48528 19.3556 6.40188L19.9806 3.90188C20.0011 3.80998 20.001 3.71469 19.9804 3.62283C19.9597 3.53097 19.919 3.44482 19.8611 3.37056C19.8032 3.29631 19.7296 3.23578 19.6456 3.19332C19.5615 3.15087 19.4691 3.12754 19.375 3.125H6.875C6.70924 3.125 6.55027 3.19085 6.43306 3.30806C6.31585 3.42527 6.25 3.58424 6.25 3.75C6.25 3.91576 6.31585 4.07473 6.43306 4.19194C6.55027 4.30915 6.70924 4.375 6.875 4.375H18.5744L18.2619 5.625H11.25C11.0842 5.625 10.9253 5.69085 10.8081 5.80806C10.6908 5.92527 10.625 6.08424 10.625 6.25C10.625 6.41576 10.6908 6.57473 10.8081 6.69194C10.9253 6.80915 11.0842 6.875 11.25 6.875H18.75C18.8527 6.87417 18.9536 6.84729 19.0431 6.79688Z" fill="white"/>
<path d="M15 9.375C15.1658 9.375 15.3247 9.30915 15.4419 9.19194C15.5592 9.07473 15.625 8.91576 15.625 8.75C15.625 8.58424 15.5592 8.42527 15.4419 8.30806C15.3247 8.19085 15.1658 8.125 15 8.125H9.375C9.20924 8.125 9.05027 8.19085 8.93306 8.30806C8.81585 8.42527 8.75 8.58424 8.75 8.75C8.75 8.91576 8.81585 9.07473 8.93306 9.19194C9.05027 9.30915 9.20924 9.375 9.375 9.375H15Z" fill="white"/>
</svg>
