<svg width="12" height="12" viewBox="0 0 12 12" fill="none" xmlns="http://www.w3.org/2000/svg">
<g clip-path="url(#clip0_559_9069)">
<path d="M10.3687 11.6201H7.81875C7.125 11.6201 6.5625 11.0577 6.5625 10.364V6.93323C6.5625 6.72701 6.73125 6.55828 6.9375 6.55828H10.3687C11.0625 6.55828 11.625 7.12071 11.625 7.81436V10.364C11.625 11.0577 11.0625 11.6201 10.3687 11.6201ZM7.3125 7.30818V10.364C7.3125 10.6452 7.5375 10.8702 7.81875 10.8702H10.3687C10.65 10.8702 10.875 10.6452 10.875 10.364V7.81436C10.875 7.53315 10.65 7.30818 10.3687 7.30818H7.3125ZM4.18125 11.6201H1.63125C0.9375 11.6201 0.375 11.0577 0.375 10.364V7.81436C0.375 7.12071 0.9375 6.55828 1.63125 6.55828H5.0625C5.26875 6.55828 5.4375 6.72701 5.4375 6.93323V10.364C5.4375 11.0577 4.875 11.6201 4.18125 11.6201ZM1.63125 7.30818C1.35 7.30818 1.125 7.53315 1.125 7.81436V10.364C1.125 10.6452 1.35 10.8702 1.63125 10.8702H4.18125C4.4625 10.8702 4.6875 10.6452 4.6875 10.364V7.30818H1.63125ZM10.3687 5.43344H6.9375C6.73125 5.43344 6.5625 5.26471 6.5625 5.05849V1.62772C6.5625 0.934065 7.125 0.371643 7.81875 0.371643H10.3687C11.0625 0.371643 11.625 0.934065 11.625 1.62772V4.17736C11.625 4.87102 11.0625 5.43344 10.3687 5.43344ZM7.3125 4.68354H10.3687C10.65 4.68354 10.875 4.45858 10.875 4.17736V1.62772C10.875 1.34651 10.65 1.12154 10.3687 1.12154H7.81875C7.5375 1.12154 7.3125 1.34651 7.3125 1.62772V4.68354ZM5.0625 5.43344H1.63125C0.9375 5.43344 0.375 4.87102 0.375 4.17736V1.62772C0.375 0.934065 0.9375 0.371643 1.63125 0.371643H4.18125C4.875 0.371643 5.4375 0.934065 5.4375 1.62772V5.05849C5.4375 5.26471 5.26875 5.43344 5.0625 5.43344ZM1.63125 1.12154C1.35 1.12154 1.125 1.34651 1.125 1.62772V4.17736C1.125 4.45858 1.35 4.68354 1.63125 4.68354H4.6875V1.62772C4.6875 1.34651 4.4625 1.12154 4.18125 1.12154H1.63125Z" fill="black"/>
</g>
<defs>
<clipPath id="clip0_559_9069">
<rect width="12" height="11.9983" fill="white" transform="translate(0 -0.00335693)"/>
</clipPath>
</defs>
</svg>
