<svg width="10" height="16" viewBox="0 0 10 16" fill="none" xmlns="http://www.w3.org/2000/svg">
<path d="M3.07969 9.03999H1.09969C0.779688 9.03999 0.679688 8.91999 0.679688 8.61999V6.19999C0.679688 5.87999 0.799688 5.77999 1.09969 5.77999H3.07969V4.01999C3.07969 3.21999 3.21969 2.45999 3.61969 1.75999C4.03969 1.03999 4.63969 0.559989 5.39969 0.279989C5.89969 0.0999889 6.39969 0.019989 6.93969 0.019989H8.89969C9.17969 0.019989 9.29969 0.139989 9.29969 0.419989V2.69999C9.29969 2.97999 9.17969 3.09999 8.89969 3.09999C8.35969 3.09999 7.81969 3.09999 7.27969 3.11999C6.73969 3.11999 6.45969 3.37999 6.45969 3.93999C6.43969 4.53999 6.45969 5.11999 6.45969 5.73999H8.77969C9.09969 5.73999 9.21969 5.85999 9.21969 6.17999V8.59999C9.21969 8.91999 9.11969 9.01999 8.77969 9.01999H6.45969V15.54C6.45969 15.88 6.35969 16 5.99969 16H3.49969C3.19969 16 3.07969 15.88 3.07969 15.58V9.03999Z" fill="#3A3A3A"/>
</svg>
