<svg width="16" height="16" viewBox="0 0 16 16" fill="none" xmlns="http://www.w3.org/2000/svg">
<path d="M7.99998 15.2348C7.77217 15.2348 7.55261 15.1523 7.38145 15.0024C6.73508 14.4372 6.11193 13.9061 5.56211 13.4376L5.5593 13.4352C3.94737 12.0615 2.5554 10.8752 1.5869 9.70664C0.50428 8.4003 0 7.16161 0 5.80846C0 4.49377 0.450812 3.28087 1.26928 2.39306C2.09753 1.49475 3.23399 1 4.46971 1C5.3933 1 6.23911 1.292 6.98364 1.86781C7.35936 2.15844 7.69992 2.51415 7.99998 2.92906C8.30014 2.51415 8.64061 2.15844 9.01645 1.86781C9.76098 1.292 10.6068 1 11.5304 1C12.766 1 13.9026 1.49475 14.7308 2.39306C15.5493 3.28087 16 4.49377 16 5.80846C16 7.16158 15.4958 8.40027 14.4132 9.70651C13.4447 10.8752 12.0528 12.0614 10.4411 13.4349C9.89036 13.9042 9.26623 14.4361 8.61839 15.0027C8.44718 15.1524 8.22744 15.2349 7.99998 15.2348ZM4.46971 1.93725C3.4989 1.93725 2.60706 2.32472 1.95825 3.02831C1.29981 3.74256 0.937123 4.72987 0.937123 5.80846C0.937123 6.94652 1.36009 7.96433 2.30846 9.10864C3.22509 10.2147 4.58849 11.3766 6.16711 12.7219L6.17002 12.7244C6.72189 13.1947 7.34752 13.7279 7.99864 14.2972C8.65367 13.7268 9.28026 13.1927 9.83323 12.7217C11.4117 11.3763 12.775 10.2147 13.6916 9.10864C14.6399 7.96433 15.0628 6.94652 15.0628 5.80846C15.0628 4.72984 14.7002 3.74253 14.0417 3.02831C13.393 2.32472 12.5011 1.93725 11.5304 1.93725C10.8192 1.93725 10.1662 2.16334 9.5897 2.60912C9.07592 3.00659 8.71801 3.50903 8.50814 3.86059C8.40026 4.04137 8.21033 4.14927 7.99998 4.14927C7.78964 4.14927 7.5997 4.04137 7.4918 3.86059C7.28211 3.50903 6.92417 3.00659 6.41024 2.60912C5.83374 2.16334 5.18077 1.93725 4.46971 1.93725Z" fill="#3A3A3A"/>
</svg>
