<svg width="16" height="16" viewBox="0 0 16 16" fill="none" xmlns="http://www.w3.org/2000/svg">
<path d="M15.9836 4.70404C15.9461 3.85388 15.8086 3.26945 15.6117 2.76298C15.4085 2.2254 15.0959 1.74412 14.6865 1.34401C14.2863 0.937683 13.8019 0.621934 13.2705 0.421957C12.7612 0.225044 12.1797 0.0875171 11.3296 0.0500723C10.4731 0.00937683 10.2012 0 8.02891 0C5.85661 0 5.58471 0.00937683 4.73139 0.0468842C3.88125 0.0843915 3.29679 0.221981 2.79048 0.418769C2.25275 0.621934 1.77147 0.934495 1.37136 1.34401C0.965027 1.74409 0.649434 2.22856 0.449301 2.75991C0.252388 3.26945 0.114892 3.85075 0.077416 4.70086C0.0367518 5.55737 0.0273438 5.82926 0.0273438 8.00156C0.0273438 10.1739 0.0367518 10.4458 0.0742279 11.2991C0.111735 12.1492 0.249325 12.7337 0.446269 13.2401C0.649434 13.7777 0.965027 14.259 1.37136 14.6591C1.77147 15.0654 2.25594 15.3812 2.78729 15.5812C3.29676 15.7781 3.87806 15.9156 4.72836 15.9531C5.58152 15.9907 5.85358 15.9999 8.02587 15.9999C10.1982 15.9999 10.4701 15.9907 11.3234 15.9531C12.1735 15.9156 12.758 15.7781 13.2643 15.5812C13.7961 15.3756 14.279 15.0611 14.6822 14.658C15.0854 14.2548 15.3998 13.7719 15.6055 13.2401C15.8023 12.7306 15.9399 12.1492 15.9774 11.2991C16.0149 10.4458 16.0243 10.1739 16.0243 8.00156C16.0243 5.82926 16.0211 5.55733 15.9836 4.70404ZM14.5428 11.2366C14.5083 12.018 14.3771 12.4399 14.2677 12.7212C13.9988 13.4182 13.4456 13.9715 12.7486 14.2403C12.4673 14.3497 12.0423 14.481 11.2639 14.5153C10.42 14.5529 10.1669 14.5622 8.03209 14.5622C5.89727 14.5622 5.641 14.5529 4.80012 14.5153C4.01872 14.481 3.59676 14.3497 3.31545 14.2403C2.96861 14.1121 2.65289 13.909 2.39659 13.6433C2.13091 13.3839 1.92775 13.0713 1.79953 12.7244C1.69014 12.4431 1.55889 12.018 1.52461 11.2398C1.48697 10.3958 1.47772 10.1426 1.47772 8.00778C1.47772 5.87296 1.48697 5.61669 1.52461 4.77596C1.55889 3.99456 1.69014 3.5726 1.79953 3.2913C1.92775 2.94429 2.13091 2.62864 2.39978 2.37228C2.65908 2.1066 2.97164 1.90343 3.31864 1.77538C3.59995 1.66598 4.02509 1.53471 4.80331 1.50029C5.64722 1.46279 5.90046 1.45341 8.03513 1.45341C10.1731 1.45341 10.4262 1.46279 11.2671 1.50029C12.0485 1.53474 12.4705 1.66595 12.7518 1.77535C13.0986 1.90343 13.4144 2.1066 13.6706 2.37228C13.9363 2.63173 14.1395 2.94429 14.2677 3.2913C14.3771 3.5726 14.5083 3.99759 14.5427 4.77596C14.5802 5.61988 14.5896 5.87296 14.5896 8.00778C14.5896 10.1426 14.5803 10.3927 14.5428 11.2366Z" fill="#3A3A3A"/>
<path d="M8.02815 3.89138C5.75902 3.89138 3.91797 5.7323 3.91797 8.00156C3.91797 10.2708 5.75902 12.1117 8.02815 12.1117C10.2973 12.1117 12.1383 10.2708 12.1383 8.00156C12.1383 5.7323 10.2973 3.89138 8.02815 3.89138ZM8.02815 10.6677C6.55605 10.6677 5.36194 9.47378 5.36194 8.00156C5.36194 6.52933 6.55605 5.33541 8.02812 5.33541C9.50034 5.33541 10.6943 6.52933 10.6943 8.00156C10.6943 9.47378 9.50031 10.6677 8.02815 10.6677ZM13.2605 3.72885C13.2605 4.25876 12.8308 4.68841 12.3008 4.68841C11.7709 4.68841 11.3413 4.25876 11.3413 3.72885C11.3413 3.19887 11.7709 2.76935 12.3008 2.76935C12.8308 2.76935 13.2605 3.19884 13.2605 3.72885Z" fill="#3A3A3A"/>
</svg>
