<svg width="18" height="18" viewBox="0 0 18 18" fill="none" xmlns="http://www.w3.org/2000/svg">
<path d="M16.2008 16.2V10.926C16.2008 8.33399 15.6428 6.35399 12.6188 6.35399C11.1608 6.35399 10.1888 7.14599 9.79278 7.90199H9.75678V6.58799H6.89478V16.2H9.88278V11.43C9.88278 10.17 10.1168 8.96399 11.6648 8.96399C13.1948 8.96399 13.2128 10.386 13.2128 11.502V16.182H16.2008V16.2ZM2.03478 6.58799H5.02278V16.2H2.03478V6.58799ZM3.52878 1.79999C2.57478 1.79999 1.80078 2.57399 1.80078 3.52799C1.80078 4.48199 2.57478 5.27399 3.52878 5.27399C4.48278 5.27399 5.25678 4.48199 5.25678 3.52799C5.25678 2.57399 4.48278 1.79999 3.52878 1.79999Z" fill="#3A3A3A"/>
</svg>
