<svg width="50" height="44" viewBox="0 0 50 44" fill="none" xmlns="http://www.w3.org/2000/svg">
<path d="M26.7866 43.9442C29.2533 43.9442 31.253 41.9446 31.253 39.4779C31.253 37.0112 29.2533 35.0116 26.7866 35.0116C24.32 35.0116 22.3203 37.0112 22.3203 39.4779C22.3203 41.9446 24.32 43.9442 26.7866 43.9442Z" fill="#3A3A3A"/>
<path d="M7.89015 44C10.3568 44 12.3565 42.0003 12.3565 39.5336C12.3565 37.067 10.3568 35.0673 7.89015 35.0673C5.42347 35.0673 3.42383 37.067 3.42383 39.5336C3.42383 42.0003 5.42347 44 7.89015 44Z" fill="#3A3A3A"/>
<path d="M0 32.615C0 34.0121 1.13144 35.1435 2.52856 35.1435H32.2434L42.6995 5.05713H47.2438H47.2457C48.6428 5.05713 49.7743 3.92383 49.7743 2.52856C49.7743 1.1333 48.6391 0 47.2438 0H39.1026L28.6465 30.0845H2.52856C1.13144 30.0845 0 31.2178 0 32.615Z" fill="#3A3A3A"/>
<path d="M24.3269 26.222H5.47132C3.33105 26.222 1.59766 24.4867 1.59766 22.3483V5.93031C1.59766 3.79004 3.33291 2.05664 5.47132 2.05664H24.3269C26.4671 2.05664 28.2005 3.79189 28.2005 5.93031V22.3483C28.2024 24.4867 26.4671 26.222 24.3269 26.222Z" fill="#EF3F23"/>
<path d="M21.8709 20.5072C21.8839 20.6911 21.7891 20.784 21.5848 20.784C21.4547 20.784 21.0813 20.7097 20.4626 20.5592C19.8439 20.4087 19.4631 20.3065 19.32 20.2508C17.8913 20.8119 16.5221 21.0905 15.2085 21.0905C13.0961 21.0905 11.3646 20.3864 10.0102 18.9781C8.67069 17.5903 8 15.8383 8 13.7185C8 11.5522 8.6484 9.75565 9.94705 8.32695C11.2866 6.84994 13.0255 6.11237 15.1658 6.11237C16.2044 6.11237 17.1816 6.31116 18.0975 6.70688C19.0878 7.14348 19.8681 7.7603 20.4347 8.55175C20.5499 8.71525 20.6094 8.83229 20.6094 8.90103C20.6094 9.12026 20.3028 9.61074 19.6916 10.3725C19.0804 11.1342 18.6846 11.5151 18.5081 11.5151C18.4673 11.5151 18.3093 11.3757 18.0362 11.0952C17.7018 10.7608 17.36 10.5007 17.0107 10.3167C16.4905 10.0362 15.9164 9.89685 15.2884 9.89685C14.2629 9.89685 13.4491 10.2796 12.849 11.045C12.288 11.7492 12.0093 12.6279 12.0093 13.6795C12.0093 14.7942 12.2991 15.6748 12.8806 16.3251C13.4826 16.9958 14.3335 17.3302 15.4333 17.3302C16.1301 17.3302 16.9104 17.1556 17.7706 16.8081C17.7501 16.5833 17.6888 16.0093 17.5866 15.0859C17.4974 14.3743 17.4529 13.8002 17.4529 13.3636C17.4529 13.2336 17.4974 13.1556 17.5866 13.1277C17.6201 13.1147 17.6758 13.1073 17.7501 13.1073C17.9489 13.1073 18.248 13.1258 18.6475 13.163C19.0469 13.2001 19.3497 13.2187 19.5541 13.2187C19.7733 13.2187 20.1003 13.2039 20.5388 13.1723C20.9754 13.1407 21.3042 13.1258 21.5235 13.1258C21.6944 13.1258 21.7798 13.2392 21.7798 13.464C21.7798 13.7928 21.7613 14.287 21.7241 14.9503C21.6869 15.6135 21.6684 16.1096 21.6684 16.4366C21.6684 17.3191 21.7334 18.6381 21.8634 20.3938L21.8709 20.5072Z" fill="#30B44A"/>
</svg>
