<svg width="20" height="20" viewBox="0 0 20 20" fill="none" xmlns="http://www.w3.org/2000/svg">
<g clip-path="url(#clip0_559_9101)">
<path d="M15.9375 7.5H16.5625V8.125H15.9375V7.5Z" fill="#3A3A3A"/>
<path d="M19.0625 8.125H17.1875V7.5H19.0625C19.1454 7.5 19.2249 7.46708 19.2835 7.40847C19.3421 7.34987 19.375 7.27038 19.375 7.1875V4.6875C19.375 4.60462 19.3421 4.52513 19.2835 4.46653C19.2249 4.40792 19.1454 4.375 19.0625 4.375H0.9375C0.85462 4.375 0.775134 4.40792 0.716529 4.46653C0.657924 4.52513 0.625 4.60462 0.625 4.6875V7.1875C0.625 7.27038 0.657924 7.34987 0.716529 7.40847C0.775134 7.46708 0.85462 7.5 0.9375 7.5H14.6875V8.125H0.9375C0.68886 8.125 0.450403 8.02623 0.274587 7.85041C0.098772 7.6746 0 7.43614 0 7.1875L0 4.6875C0 4.43886 0.098772 4.2004 0.274587 4.02459C0.450403 3.84877 0.68886 3.75 0.9375 3.75H19.0625C19.3111 3.75 19.5496 3.84877 19.7254 4.02459C19.9012 4.2004 20 4.43886 20 4.6875V7.1875C20 7.43614 19.9012 7.6746 19.7254 7.85041C19.5496 8.02623 19.3111 8.125 19.0625 8.125Z" fill="#3A3A3A"/>
<path d="M17.8125 7.8125H18.4375V9.6875H17.8125V7.8125ZM1.5625 8.75H2.1875V9.375H1.5625V8.75ZM16.875 20H3.125C2.71075 19.9995 2.31361 19.8347 2.02069 19.5418C1.72778 19.2489 1.563 18.8517 1.5625 18.4375V10H2.1875V18.4375C2.1875 18.6861 2.28627 18.9246 2.46209 19.1004C2.6379 19.2762 2.87636 19.375 3.125 19.375H16.875C17.1236 19.375 17.3621 19.2762 17.5379 19.1004C17.7137 18.9246 17.8125 18.6861 17.8125 18.4375V18.125H18.4375V18.4375C18.437 18.8517 18.2722 19.2489 17.9793 19.5418C17.6864 19.8347 17.2892 19.9995 16.875 20ZM11.5625 4.375H8.4375C8.35462 4.375 8.27513 4.34208 8.21653 4.28347C8.15792 4.22487 8.125 4.14538 8.125 4.0625V3.4375C8.125 3.18886 8.22377 2.9504 8.39959 2.77459C8.5754 2.59877 8.81386 2.5 9.0625 2.5H10.9375C11.1861 2.5 11.4246 2.59877 11.6004 2.77459C11.7762 2.9504 11.875 3.18886 11.875 3.4375V4.0625C11.875 4.14538 11.8421 4.22487 11.7835 4.28347C11.7249 4.34208 11.6454 4.375 11.5625 4.375ZM8.75 3.75H11.25V3.4375C11.25 3.35462 11.2171 3.27513 11.1585 3.21653C11.0999 3.15792 11.0204 3.125 10.9375 3.125H9.0625C8.97962 3.125 8.90013 3.15792 8.84153 3.21653C8.78292 3.27513 8.75 3.35462 8.75 3.4375V3.75Z" fill="#3A3A3A"/>
<path d="M16.25 4.37499V3.74999C16.3335 3.75542 16.4172 3.74296 16.4954 3.71347C16.5737 3.68398 16.6448 3.63813 16.704 3.57897C16.7631 3.51982 16.809 3.44872 16.8385 3.37044C16.868 3.29215 16.8804 3.20848 16.875 3.12499C16.875 2.19812 15.6759 2.18749 15.625 2.18749C15.5421 2.18749 15.4626 2.15457 15.404 2.09596C15.3454 2.03736 15.3125 1.95787 15.3125 1.87499C15.3191 1.70907 15.2913 1.54358 15.2308 1.38894C15.1703 1.2343 15.0785 1.09385 14.9611 0.97643C14.8436 0.859014 14.7032 0.767174 14.5486 0.706692C14.3939 0.646209 14.2284 0.618393 14.0625 0.624994C13.1659 0.624994 12.5278 1.08468 12.1653 1.99124C11.988 2.4536 11.8899 2.94253 11.875 3.43749H11.25C11.25 2.24999 11.8378 -6.46408e-06 14.0625 -6.46408e-06C14.5149 -0.0234562 14.9591 0.127525 15.3035 0.421825C15.6479 0.716126 15.8663 1.13133 15.9137 1.58187C16.5816 1.66687 17.5 2.05531 17.5 3.12499C17.5049 3.29047 17.4759 3.4552 17.4148 3.60907C17.3537 3.76293 17.2618 3.90269 17.1448 4.01975C17.0277 4.13681 16.8879 4.22871 16.7341 4.2898C16.5802 4.35089 16.4155 4.37988 16.25 4.37499Z" fill="#3A3A3A"/>
<path d="M11.7837 3.65874L11.3421 3.21656C12.5162 2.15438 14.0423 1.56507 15.6255 1.56249V2.18749C14.2094 2.19865 12.845 2.72115 11.7837 3.65874ZM3.75053 4.37499C3.58505 4.37988 3.42032 4.35089 3.26646 4.2898C3.11259 4.22871 2.97284 4.13681 2.85577 4.01975C2.73871 3.90269 2.64682 3.76293 2.58573 3.60907C2.52464 3.4552 2.49564 3.29047 2.50053 3.12499C2.50053 2.05531 3.41897 1.66687 4.08678 1.58187C4.13418 1.13133 4.35259 0.716126 4.69701 0.421825C5.04142 0.127525 5.48561 -0.0234562 5.93803 -6.46408e-06C8.16272 -6.46408e-06 8.75053 2.24999 8.75053 3.43749H8.12553C8.12553 3.32281 8.09428 0.624994 5.93803 0.624994C4.70209 0.624994 4.68803 1.82406 4.68803 1.87499C4.68803 1.95787 4.6551 2.03736 4.5965 2.09596C4.53789 2.15457 4.45841 2.18749 4.37553 2.18749C4.32522 2.18749 3.12553 2.20531 3.12553 3.12499C3.12018 3.20865 3.13275 3.29248 3.16241 3.37088C3.19206 3.44928 3.23812 3.52045 3.2975 3.57962C3.35687 3.63878 3.4282 3.68459 3.5067 3.71397C3.58521 3.74336 3.66908 3.75564 3.75272 3.74999L3.75053 4.37499Z" fill="#3A3A3A"/>
<path d="M8.21688 3.65875C7.15553 2.72116 5.79113 2.19866 4.375 2.1875V1.5625C5.95825 1.56508 7.48436 2.15439 8.65844 3.21656L8.21688 3.65875ZM12.5 8.125H7.5C7.41712 8.125 7.33763 8.09208 7.27903 8.03347C7.22042 7.97487 7.1875 7.89538 7.1875 7.8125V4.0625C7.1875 3.97962 7.22042 3.90013 7.27903 3.84153C7.33763 3.78292 7.41712 3.75 7.5 3.75H12.5C12.5829 3.75 12.6624 3.78292 12.721 3.84153C12.7796 3.90013 12.8125 3.97962 12.8125 4.0625V7.8125C12.8125 7.89538 12.7796 7.97487 12.721 8.03347C12.6624 8.09208 12.5829 8.125 12.5 8.125ZM7.8125 7.5H12.1875V4.375H7.8125V7.5Z" fill="#3A3A3A"/>
<path d="M12.1875 20H7.8125C7.72962 20 7.65013 19.9671 7.59153 19.9085C7.53292 19.8499 7.5 19.7704 7.5 19.6875V7.8125C7.5 7.72962 7.53292 7.65013 7.59153 7.59153C7.65013 7.53292 7.72962 7.5 7.8125 7.5H12.1875C12.2704 7.5 12.3499 7.53292 12.4085 7.59153C12.4671 7.65013 12.5 7.72962 12.5 7.8125V10H11.875V8.125H8.125V19.375H11.875V18.125H12.5V19.6875C12.5 19.7704 12.4671 19.8499 12.4085 19.9085C12.3499 19.9671 12.2704 20 12.1875 20Z" fill="#3A3A3A"/>
<path d="M16.2372 18.75C15.9838 18.7136 15.7513 18.5889 15.5809 18.3978C15.4982 18.3164 15.4046 18.2468 15.3028 18.1909C15.2122 18.2534 15.1264 18.3225 15.0459 18.3975C14.8272 18.5897 14.5772 18.8091 14.2691 18.7359C13.9609 18.6628 13.8225 18.3522 13.7041 18.0778C13.6654 17.9707 13.6129 17.8691 13.5478 17.7756C13.5103 17.7794 13.3434 17.8206 13.2403 17.8484C12.9712 17.92 12.6366 18.0097 12.3888 17.8072C12.2897 17.6955 12.2179 17.5623 12.1789 17.4181C12.14 17.2739 12.135 17.1227 12.1644 16.9763C12.1749 16.8591 12.1697 16.7411 12.1487 16.6253C12.0479 16.5942 11.9451 16.5701 11.8409 16.5531C11.5672 16.4988 11.2266 16.4313 11.0894 16.1397C11.048 15.9977 11.04 15.848 11.066 15.7023C11.0919 15.5567 11.1512 15.419 11.2391 15.3C11.2994 15.1976 11.3449 15.0873 11.3744 14.9722C11.298 14.898 11.216 14.8299 11.1291 14.7684C10.9034 14.5984 10.625 14.3856 10.625 14.0625C10.625 13.7394 10.9034 13.5269 11.1269 13.3559C11.2197 13.2934 11.3038 13.2186 11.3769 13.1338C11.3395 13.0266 11.2928 12.923 11.2372 12.8241C11.1494 12.705 11.0903 12.5673 11.0643 12.4217C11.0384 12.2761 11.0463 12.1264 11.0875 11.9844C11.2247 11.6931 11.5653 11.6256 11.8391 11.5713C11.9497 11.5561 12.0577 11.526 12.1603 11.4819C12.1693 11.3707 12.1702 11.2591 12.1628 11.1478C12.1335 11.0014 12.1384 10.8502 12.1774 10.706C12.2163 10.5618 12.2881 10.4286 12.3872 10.3169C12.6347 10.1144 12.9697 10.2038 13.2391 10.2759C13.3454 10.3124 13.4564 10.3334 13.5687 10.3384C13.6186 10.2438 13.6637 10.1467 13.7038 10.0475C13.8219 9.77314 13.9563 9.46189 14.2684 9.38907C14.575 9.31814 14.825 9.53564 15.0456 9.72751C15.1282 9.80899 15.2217 9.87862 15.3234 9.93439C15.414 9.87194 15.4998 9.80279 15.58 9.72751C15.8006 9.53564 16.0488 9.31782 16.3575 9.38907C16.6663 9.46032 16.8038 9.77314 16.9222 10.0475C16.9609 10.1546 17.0135 10.2562 17.0784 10.3497C17.1147 10.3459 17.2828 10.3044 17.3859 10.2769C17.5209 10.2155 17.6686 10.1872 17.8167 10.1944C17.9648 10.2016 18.1091 10.244 18.2375 10.3181C18.3366 10.4299 18.4084 10.5631 18.4473 10.7072C18.4862 10.8514 18.4912 11.0027 18.4619 11.1491C18.4513 11.2662 18.4566 11.3843 18.4775 11.5C18.5783 11.5312 18.6812 11.5553 18.7853 11.5722C19.0591 11.6266 19.3997 11.6941 19.5369 11.9856C19.5782 12.1277 19.5863 12.2774 19.5603 12.423C19.5343 12.5686 19.4751 12.7063 19.3872 12.8253C19.3269 12.9277 19.2813 13.038 19.2519 13.1531C19.3282 13.2273 19.4103 13.2954 19.4972 13.3569C19.7216 13.5266 20 13.7394 20 14.0625C20 14.3856 19.7216 14.5981 19.4981 14.7691C19.4053 14.8317 19.3212 14.9064 19.2481 14.9913C19.2855 15.0984 19.3322 15.202 19.3878 15.3009C19.4756 15.42 19.5347 15.5577 19.5607 15.7033C19.5866 15.8489 19.5787 15.9986 19.5375 16.1406C19.4003 16.4319 19.0597 16.4994 18.7859 16.5538C18.6753 16.5689 18.5673 16.599 18.4647 16.6431C18.4557 16.7543 18.4548 16.8659 18.4622 16.9772C18.4915 17.1236 18.4866 17.2749 18.4476 17.419C18.4087 17.5632 18.3369 17.6964 18.2378 17.8081C17.99 18.0106 17.655 17.9213 17.3859 17.8491C17.2795 17.8128 17.1685 17.7917 17.0563 17.7866C17.0063 17.8813 16.9612 17.9785 16.9212 18.0778C16.8031 18.3519 16.6687 18.6634 16.3566 18.7356C16.3175 18.745 16.2774 18.7499 16.2372 18.75ZM13.5497 17.1606C13.6481 17.1592 13.7456 17.1806 13.8344 17.2231C14.0493 17.3673 14.2064 17.5828 14.2778 17.8316C14.3157 17.9262 14.3604 18.018 14.4116 18.1063C14.4899 18.0518 14.5645 17.9922 14.635 17.9278C14.8107 17.7308 15.051 17.6031 15.3125 17.5675C15.5742 17.6028 15.8147 17.7303 15.9906 17.9272C16.061 17.9915 16.1356 18.0511 16.2137 18.1056C16.2649 18.0174 16.3097 17.9256 16.3478 17.8309C16.4193 17.5823 16.5762 17.3668 16.7909 17.2225C17.0378 17.1392 17.3064 17.1475 17.5478 17.2456C17.6446 17.2743 17.7436 17.2952 17.8437 17.3081C17.8459 17.2531 17.8409 17.095 17.8378 16.9956C17.7974 16.7381 17.8477 16.4746 17.98 16.25C18.1642 16.0687 18.4069 15.9589 18.6647 15.94C18.7641 15.9232 18.8622 15.8986 18.9578 15.8666C18.9229 15.7691 18.8805 15.6746 18.8309 15.5838C18.6855 15.366 18.6187 15.1052 18.6416 14.8444C18.7281 14.6032 18.8971 14.4005 19.1187 14.2719C19.2064 14.2097 19.2882 14.1396 19.3631 14.0625C19.2883 13.9852 19.2065 13.9149 19.1187 13.8525C18.8973 13.7243 18.7283 13.522 18.6416 13.2813C18.6187 13.0204 18.6856 12.7595 18.8312 12.5419C18.8807 12.451 18.9231 12.3564 18.9581 12.2591C18.8624 12.2268 18.7643 12.2021 18.6647 12.1853C18.4071 12.1667 18.1645 12.0571 17.9803 11.8759C17.8478 11.6511 17.7975 11.3872 17.8381 11.1294C17.8441 11.0258 17.8424 10.9218 17.8328 10.8184C17.7365 10.8324 17.6414 10.8533 17.5481 10.8809C17.3067 10.9791 17.0381 10.9872 16.7912 10.9038C16.5763 10.7596 16.4193 10.5441 16.3478 10.2953C16.3098 10.2006 16.2651 10.1087 16.2141 10.0203C16.1359 10.0751 16.0612 10.1348 15.9906 10.1991C15.8144 10.3954 15.574 10.5225 15.3125 10.5575C15.0508 10.5223 14.8103 10.3947 14.6344 10.1978C14.5638 10.1337 14.4893 10.074 14.4113 10.0191C14.3601 10.1074 14.3153 10.1993 14.2772 10.2941C14.2057 10.5427 14.0488 10.7582 13.8341 10.9025C13.5871 10.9855 13.3186 10.9773 13.0772 10.8794C12.9804 10.8507 12.8814 10.8298 12.7813 10.8169C12.7791 10.8719 12.7841 11.03 12.7872 11.1294C12.8276 11.3869 12.7773 11.6504 12.645 11.875C12.4608 12.0563 12.2181 12.1661 11.9603 12.185C11.8608 12.2019 11.7628 12.2264 11.6672 12.2584C11.7021 12.3559 11.7445 12.4504 11.7941 12.5413C11.9395 12.759 12.0063 13.0198 11.9834 13.2806C11.8969 13.5218 11.7279 13.7246 11.5062 13.8531C11.4185 13.9155 11.3367 13.9858 11.2619 14.0631C11.3367 14.1405 11.4185 14.2108 11.5062 14.2731C11.7275 14.4012 11.8965 14.6033 11.9834 14.8438C12.0063 15.1046 11.9394 15.3655 11.7938 15.5831C11.7443 15.674 11.7019 15.7686 11.6669 15.8659C11.7626 15.8982 11.8607 15.9229 11.9603 15.9397C12.2179 15.9583 12.4605 16.0679 12.6447 16.2491C12.7772 16.4739 12.8275 16.7378 12.7869 16.9956C12.7809 17.0993 12.7826 17.2032 12.7922 17.3066C12.8885 17.2926 12.9836 17.2717 13.0769 17.2441C13.2301 17.1964 13.3888 17.1686 13.5491 17.1613L13.5497 17.1606Z" fill="#3A3A3A"/>
<path d="M13.2168 15.7162L16.9668 11.9662L17.409 12.4081L13.659 16.1581L13.2168 15.7162ZM16.2502 16.5625C16.0648 16.5625 15.8836 16.5075 15.7294 16.4045C15.5752 16.3015 15.4551 16.1551 15.3841 15.9838C15.3131 15.8125 15.2946 15.624 15.3307 15.4421C15.3669 15.2602 15.4562 15.0932 15.5873 14.9621C15.7184 14.831 15.8855 14.7417 16.0673 14.7055C16.2492 14.6693 16.4377 14.6879 16.609 14.7589C16.7803 14.8298 16.9267 14.95 17.0297 15.1042C17.1328 15.2583 17.1877 15.4396 17.1877 15.625C17.1877 15.8736 17.089 16.1121 16.9131 16.2879C16.7373 16.4637 16.4989 16.5625 16.2502 16.5625ZM16.2502 15.3125C16.1884 15.3125 16.128 15.3308 16.0766 15.3652C16.0252 15.3995 15.9852 15.4483 15.9615 15.5054C15.9379 15.5625 15.9317 15.6253 15.9437 15.686C15.9558 15.7466 15.9856 15.8023 16.0293 15.846C16.073 15.8897 16.1286 15.9194 16.1893 15.9315C16.2499 15.9436 16.3127 15.9374 16.3698 15.9137C16.4269 15.8901 16.4757 15.85 16.5101 15.7986C16.5444 15.7472 16.5627 15.6868 16.5627 15.625C16.5627 15.5421 16.5298 15.4626 16.4712 15.404C16.4126 15.3454 16.3331 15.3125 16.2502 15.3125ZM14.3752 13.4375C14.1898 13.4375 14.0086 13.3825 13.8544 13.2795C13.7002 13.1765 13.5801 13.0301 13.5091 12.8588C13.4381 12.6875 13.4196 12.499 13.4557 12.3171C13.4919 12.1352 13.5812 11.9682 13.7123 11.8371C13.8434 11.706 14.0105 11.6167 14.1923 11.5805C14.3742 11.5443 14.5627 11.5629 14.734 11.6339C14.9053 11.7048 15.0517 11.825 15.1547 11.9792C15.2578 12.1333 15.3127 12.3146 15.3127 12.5C15.3127 12.7486 15.214 12.9871 15.0381 13.1629C14.8623 13.3387 14.6239 13.4375 14.3752 13.4375ZM14.3752 12.1875C14.3134 12.1875 14.253 12.2058 14.2016 12.2402C14.1502 12.2745 14.1102 12.3233 14.0865 12.3804C14.0629 12.4375 14.0567 12.5003 14.0687 12.561C14.0808 12.6216 14.1106 12.6773 14.1543 12.721C14.198 12.7647 14.2536 12.7944 14.3143 12.8065C14.3749 12.8186 14.4377 12.8124 14.4948 12.7887C14.5519 12.7651 14.6007 12.725 14.6351 12.6736C14.6694 12.6222 14.6877 12.5618 14.6877 12.5C14.6877 12.4171 14.6548 12.3376 14.5962 12.279C14.5376 12.2204 14.4581 12.1875 14.3752 12.1875ZM15.0002 4.0625H15.6252V10.3125H15.0002V4.0625Z" fill="#3A3A3A"/>
</g>
<defs>
<clipPath id="clip0_559_9101">
<rect width="20" height="20" fill="white"/>
</clipPath>
</defs>
</svg>
