<svg width="20" height="20" viewBox="0 0 20 20" fill="none" xmlns="http://www.w3.org/2000/svg">
<path d="M9.55084 9.63408C10.8744 9.63408 12.0203 9.15936 12.9569 8.22276C13.8932 7.28635 14.368 6.14057 14.368 4.8169C14.368 3.49363 13.8933 2.34773 12.9567 1.41097C12.0201 0.474687 10.8742 0 9.55084 0C8.22713 0 7.08132 0.474687 6.14491 1.41113C5.20851 2.34757 4.73363 3.49351 4.73363 4.8169C4.73363 6.14057 5.20847 7.28651 6.14495 8.22295C7.08167 9.15924 8.2276 9.63408 9.5508 9.63408H9.55084ZM6.97378 2.23984C7.69229 1.52129 8.53522 1.17203 9.55084 1.17203C10.5663 1.17203 11.4094 1.52129 12.128 2.23984C12.8466 2.95851 13.196 3.80155 13.196 4.81687C13.196 5.83249 12.8466 6.67542 12.128 7.39409C11.4094 8.1128 10.5663 8.46205 9.55084 8.46205C8.53549 8.46205 7.69264 8.11264 6.97378 7.39409C6.25507 6.67557 5.90565 5.83253 5.90565 4.8169C5.90565 3.80155 6.25507 2.95851 6.97378 2.23984ZM17.9796 15.379C17.9526 14.9893 17.898 14.5641 17.8175 14.1153C17.7364 13.663 17.6319 13.2354 17.5067 12.8447C17.3774 12.4408 17.2017 12.0419 16.9843 11.6597C16.7589 11.2629 16.494 10.9175 16.1968 10.6332C15.8859 10.3358 15.5054 10.0967 15.0653 9.92229C14.6268 9.74885 14.1408 9.66096 13.621 9.66096C13.4168 9.66096 13.2194 9.74471 12.838 9.99299C12.567 10.1695 12.2951 10.3448 12.0224 10.5188C11.7604 10.6857 11.4055 10.8421 10.9671 10.9837C10.5394 11.1221 10.1052 11.1923 9.67639 11.1923C9.24795 11.1923 8.81366 11.1221 8.38565 10.9837C7.94776 10.8422 7.59268 10.6859 7.33112 10.5189C7.02761 10.325 6.753 10.148 6.51479 9.99279C6.13378 9.74455 5.93632 9.66076 5.73218 9.66076C5.21214 9.66076 4.72632 9.74881 4.28792 9.92248C3.84816 10.0966 3.46746 10.3357 3.15632 10.6334C2.8591 10.9178 2.59422 11.2631 2.36898 11.6597C2.15187 12.0419 1.97609 12.4406 1.84668 12.8448C1.72168 13.2356 1.61719 13.663 1.53602 14.1153C1.45543 14.5636 1.40098 14.9888 1.37395 15.3795C1.34738 15.7614 1.33398 16.1589 1.33398 16.5605C1.33398 17.6045 1.66586 18.4497 2.32031 19.073C2.96668 19.6881 3.82179 20 4.86195 20H14.4921C15.5319 20 16.387 19.6881 17.0336 19.073C17.6882 18.4501 18.02 17.6047 18.02 16.5603C18.0199 16.1574 18.0063 15.7599 17.9796 15.379ZM16.2255 18.2238C15.7984 18.6303 15.2313 18.8279 14.4919 18.8279H4.86199C4.12242 18.8279 3.55539 18.6303 3.12843 18.224C2.70961 17.8253 2.50605 17.281 2.50605 16.5605C2.50605 16.1857 2.5184 15.8157 2.54316 15.4605C2.56722 15.112 2.61652 14.7291 2.68965 14.3223C2.76179 13.9206 2.85363 13.5435 2.96289 13.2022C3.06773 12.8749 3.2107 12.5508 3.388 12.2386C3.55722 11.941 3.75191 11.6858 3.96675 11.4801C4.16773 11.2877 4.42105 11.1302 4.71949 11.0121C4.9955 10.9028 5.30573 10.843 5.64249 10.834C5.68351 10.8559 5.75663 10.8975 5.87503 10.9747C6.11597 11.1317 6.39366 11.3109 6.70069 11.5069C7.04679 11.7276 7.49261 11.9269 8.0253 12.0988C8.56987 12.2749 9.1253 12.3643 9.67659 12.3643C10.2279 12.3643 10.7835 12.2749 11.3278 12.099C11.8609 11.9267 12.3066 11.7276 12.6531 11.5066C12.9673 11.3058 13.2372 11.1319 13.4781 10.9747C13.5966 10.8976 13.6697 10.8558 13.7107 10.834C14.0476 10.843 14.3578 10.9028 14.634 11.0121C14.9323 11.1302 15.1856 11.2878 15.3866 11.4801C15.6014 11.6856 15.7961 11.9409 15.9653 12.2388C16.1428 12.5508 16.2859 12.8751 16.3906 13.202C16.5 13.5438 16.592 13.9207 16.664 14.3222C16.737 14.7297 16.7864 15.1127 16.8105 15.4606V15.4609C16.8354 15.8148 16.8479 16.1847 16.8481 16.5605C16.8479 17.2812 16.6443 17.8253 16.2255 18.2238H16.2255Z" fill="#3A3A3A"/>
</svg>
