<svg width="12" height="20" viewBox="0 0 12 20" fill="none" xmlns="http://www.w3.org/2000/svg">
<path d="M10.2969 0H1.70312C0.895391 0 0.238281 0.657109 0.238281 1.46484V18.5352C0.238281 19.3429 0.895391 20 1.70312 20H10.2969C11.1046 20 11.7617 19.3429 11.7617 18.5352V1.46484C11.7617 0.657109 11.1046 0 10.2969 0ZM11.1758 15.8984H2.875C2.7973 15.8984 2.72278 15.9293 2.66784 15.9842C2.6129 16.0392 2.58203 16.1137 2.58203 16.1914C2.58203 16.2691 2.6129 16.3436 2.66784 16.3986C2.72278 16.4535 2.7973 16.4844 2.875 16.4844H11.1758V18.5352C11.1758 19.0198 10.7815 19.4141 10.2969 19.4141H1.70312C1.21848 19.4141 0.824219 19.0198 0.824219 18.5352V16.4844H1.70312C1.78083 16.4844 1.85534 16.4535 1.91029 16.3986C1.96523 16.3436 1.99609 16.2691 1.99609 16.1914C1.99609 16.1137 1.96523 16.0392 1.91029 15.9842C1.85534 15.9293 1.78083 15.8984 1.70312 15.8984H0.824219V2.92969H11.1758V15.8984ZM11.1758 2.34375H0.824219V1.46484C0.824219 0.980195 1.21848 0.585938 1.70312 0.585938H10.2969C10.7815 0.585938 11.1758 0.980195 11.1758 1.46484V2.34375Z" fill="#3A3A3A"/>
<path d="M7.17188 1.17188H6C5.9223 1.17188 5.84778 1.20274 5.79284 1.25768C5.7379 1.31263 5.70703 1.38714 5.70703 1.46484C5.70703 1.54254 5.7379 1.61706 5.79284 1.672C5.84778 1.72695 5.9223 1.75781 6 1.75781H7.17188C7.24958 1.75781 7.32409 1.72695 7.37904 1.672C7.43398 1.61706 7.46484 1.54254 7.46484 1.46484C7.46484 1.38714 7.43398 1.31263 7.37904 1.25768C7.32409 1.20274 7.24958 1.17188 7.17188 1.17188ZM6 17.0703C5.51535 17.0703 5.12109 17.4646 5.12109 17.9492C5.12109 18.4339 5.51535 18.8281 6 18.8281C6.48465 18.8281 6.87891 18.4339 6.87891 17.9492C6.87891 17.4646 6.48465 17.0703 6 17.0703ZM6 18.2422C5.83844 18.2422 5.70703 18.1108 5.70703 17.9492C5.70703 17.7877 5.83844 17.6562 6 17.6562C6.16156 17.6562 6.29297 17.7877 6.29297 17.9492C6.29297 18.1108 6.16156 18.2422 6 18.2422Z" fill="#3A3A3A"/>
<path d="M4.82812 1.75781C4.98993 1.75781 5.12109 1.62665 5.12109 1.46484C5.12109 1.30304 4.98993 1.17188 4.82812 1.17188C4.66632 1.17188 4.53516 1.30304 4.53516 1.46484C4.53516 1.62665 4.66632 1.75781 4.82812 1.75781Z" fill="#3A3A3A"/>
</svg>
