<svg width="14" height="14" viewBox="0 0 14 14" fill="none" xmlns="http://www.w3.org/2000/svg">
<g clip-path="url(#clip0_1461_3405)">
<path d="M13.5625 9.625H4.31725L4.739 8.99281C4.80059 8.90032 4.82468 8.78786 4.80638 8.67825L3.55731 1.16069C3.52161 0.958046 3.41564 0.774467 3.25802 0.642207C3.10039 0.509946 2.9012 0.437466 2.69544 0.4375H0.4375C0.321468 0.4375 0.210188 0.483594 0.128141 0.565641C0.0460936 0.647688 0 0.758968 0 0.875C0 0.991032 0.0460936 1.10231 0.128141 1.18436C0.210188 1.26641 0.321468 1.3125 0.4375 1.3125L2.69456 1.30813L3.91519 8.65112L3.136 9.81969C3.0937 9.88591 3.06981 9.96221 3.06678 10.0407C3.06375 10.1192 3.0817 10.1972 3.11877 10.2664C3.15584 10.3357 3.2107 10.3939 3.2777 10.4349C3.34471 10.476 3.42144 10.4984 3.5 10.5H13.5625C13.6785 10.5 13.7898 10.4539 13.8719 10.3719C13.9539 10.2898 14 10.1785 14 10.0625C14 9.94647 13.9539 9.83519 13.8719 9.75314C13.7898 9.67109 13.6785 9.625 13.5625 9.625ZM13.125 12.25C13.125 11.9904 13.048 11.7367 12.9038 11.5208C12.7596 11.305 12.5546 11.1367 12.3148 11.0374C12.0749 10.9381 11.811 10.9121 11.5564 10.9627C11.3018 11.0134 11.068 11.1384 10.8844 11.3219C10.7009 11.5055 10.5759 11.7393 10.5252 11.9939C10.4746 12.2485 10.5006 12.5124 10.5999 12.7523C10.6992 12.9921 10.8675 13.1971 11.0833 13.3413C11.2992 13.4855 11.5529 13.5625 11.8125 13.5625C12.1606 13.5625 12.4944 13.4242 12.7406 13.1781C12.9867 12.9319 13.125 12.5981 13.125 12.25ZM11.375 12.25C11.375 12.1635 11.4007 12.0789 11.4487 12.0069C11.4968 11.935 11.5651 11.8789 11.6451 11.8458C11.725 11.8127 11.813 11.804 11.8979 11.8209C11.9827 11.8378 12.0607 11.8795 12.1219 11.9406C12.183 12.0018 12.2247 12.0798 12.2416 12.1646C12.2585 12.2495 12.2498 12.3375 12.2167 12.4174C12.1836 12.4974 12.1275 12.5657 12.0556 12.6138C11.9836 12.6618 11.899 12.6875 11.8125 12.6875C11.6965 12.6875 11.5852 12.6414 11.5031 12.5594C11.4211 12.4773 11.375 12.366 11.375 12.25ZM7.4375 12.25C7.4375 11.9904 7.36052 11.7367 7.2163 11.5208C7.07208 11.305 6.8671 11.1367 6.62727 11.0374C6.38744 10.9381 6.12354 10.9121 5.86894 10.9627C5.61434 11.0134 5.38048 11.1384 5.19692 11.3219C5.01337 11.5055 4.88836 11.7393 4.83772 11.9939C4.78708 12.2485 4.81307 12.5124 4.91241 12.7523C5.01175 12.9921 5.17997 13.1971 5.39581 13.3413C5.61165 13.4855 5.86541 13.5625 6.125 13.5625C6.4731 13.5625 6.80694 13.4242 7.05308 13.1781C7.29922 12.9319 7.4375 12.5981 7.4375 12.25ZM5.6875 12.25C5.6875 12.1635 5.71316 12.0789 5.76123 12.0069C5.80931 11.935 5.87763 11.8789 5.95758 11.8458C6.03752 11.8127 6.12549 11.804 6.21035 11.8209C6.29522 11.8378 6.37317 11.8795 6.43436 11.9406C6.49554 12.0018 6.53721 12.0798 6.55409 12.1646C6.57097 12.2495 6.56231 12.3375 6.5292 12.4174C6.49608 12.4974 6.44001 12.5657 6.36806 12.6138C6.29612 12.6618 6.21153 12.6875 6.125 12.6875C6.00897 12.6875 5.89769 12.6414 5.81564 12.5594C5.73359 12.4773 5.6875 12.366 5.6875 12.25Z" fill="#33B44A"/>
<path d="M5.25 7.875C5.25 7.99103 5.29609 8.10231 5.37814 8.18436C5.46019 8.26641 5.57147 8.3125 5.6875 8.3125H12.25C12.3475 8.3125 12.4423 8.27991 12.5192 8.2199C12.596 8.1599 12.6507 8.07592 12.6744 7.98131L13.2213 5.79381C13.2485 5.68159 13.2303 5.56313 13.1706 5.46428C13.1108 5.36543 13.0145 5.29421 12.9024 5.26614C12.7904 5.23808 12.6718 5.25545 12.5725 5.31447C12.4733 5.37349 12.4014 5.46936 12.3725 5.58119L11.9083 7.4375H5.6875C5.57147 7.4375 5.46019 7.48359 5.37814 7.56564C5.29609 7.64769 5.25 7.75897 5.25 7.875ZM13.3302 4.75781C13.3833 4.72871 13.43 4.68925 13.4676 4.64175C13.5052 4.59425 13.5328 4.5397 13.5489 4.48131L13.9864 2.73131C14.0008 2.66699 14.0007 2.60028 13.9863 2.53598C13.9718 2.47168 13.9433 2.41137 13.9028 2.35939C13.8622 2.30741 13.8107 2.26504 13.7519 2.23533C13.6931 2.20561 13.6284 2.18927 13.5625 2.1875H4.8125C4.69647 2.1875 4.58519 2.23359 4.50314 2.31564C4.42109 2.39769 4.375 2.50897 4.375 2.625C4.375 2.74103 4.42109 2.85231 4.50314 2.93436C4.58519 3.01641 4.69647 3.0625 4.8125 3.0625H13.0021L12.7833 3.9375H7.875C7.75897 3.9375 7.64769 3.98359 7.56564 4.06564C7.48359 4.14769 7.4375 4.25897 7.4375 4.375C7.4375 4.49103 7.48359 4.60231 7.56564 4.68436C7.64769 4.76641 7.75897 4.8125 7.875 4.8125H13.125C13.1969 4.81192 13.2675 4.7931 13.3302 4.75781Z" fill="#33B44A"/>
<path d="M10.5 6.5625C10.616 6.5625 10.7273 6.51641 10.8094 6.43436C10.8914 6.35231 10.9375 6.24103 10.9375 6.125C10.9375 6.00897 10.8914 5.89769 10.8094 5.81564C10.7273 5.73359 10.616 5.6875 10.5 5.6875H6.5625C6.44647 5.6875 6.33519 5.73359 6.25314 5.81564C6.17109 5.89769 6.125 6.00897 6.125 6.125C6.125 6.24103 6.17109 6.35231 6.25314 6.43436C6.33519 6.51641 6.44647 6.5625 6.5625 6.5625H10.5Z" fill="#33B44A"/>
</g>
<defs>
<clipPath id="clip0_1461_3405">
<rect width="14" height="14" fill="white"/>
</clipPath>
</defs>
</svg>
